<?xml version="1.0" encoding="UTF-8"?>
<svg version="1.1" width="350" height="350" xmlns="http://www.w3.org/2000/svg">
	<rect fill="#e5e7eb" height="330" width="330" x="10" y="10"/>
	<path d="m260,173-53.2,49.6,30.7-2.7,22.5-46.9zm-167,32.4c19.4,17.8,60-27.3,40.6-44.6-19.3-17.3-60.1,26.8-40.6,44.6zm50.7-165,67.6,0-73.3,75.5c60.4-12.9,69,31.6,61.8,63.3l56.1-61.1h78.4l-37.4,104h26.8l-10.6,44.6h-33.4l-17.3,47.4h-69.7l22.5-46.9-75-0.529,7.2-25.2c-63.6,28-134,15-118-60,9.3-45,114-140,114-140z" fill="#1f2937"/>
</svg>